Coordinates
version=1
nRows=16
nColumns=40
inDegrees=yes

Units are S.I. units (second, meters, Newtons, ...)
If the header above contains a line with 'inDegrees', this indicates whether rotational values are in degrees (yes) or radians (no).

endheader
time	pelvis_tilt	pelvis_list	pelvis_rotation	pelvis_tx	pelvis_ty	pelvis_tz	hip_flexion_r	hip_adduction_r	hip_rotation_r	knee_angle_r	knee_angle_r_beta	ankle_angle_r	subtalar_angle_r	mtp_angle_r	hip_flexion_l	hip_adduction_l	hip_rotation_l	knee_angle_l	knee_angle_l_beta	ankle_angle_l	subtalar_angle_l	mtp_angle_l	lumbar_extension	lumbar_bending	lumbar_rotation	arm_flex_r	arm_add_r	arm_rot_r	elbow_flex_r	pro_sup_r	wrist_flex_r	wrist_dev_r	arm_flex_l	arm_add_l	arm_rot_l	elbow_flex_l	pro_sup_l	wrist_flex_l	wrist_dev_l
      4.72500000	    -40.73357803	     -9.53751496	      2.01893727	     -0.38752283	      0.63873017	     -0.88263271	     93.71991181	    -18.37598502	    -10.33047579	     89.62654143	      1.56427825	     32.48414832	      0.00000000	      0.00000000	    103.97450274	    -20.68084391	     10.99098783	     89.24409615	      1.55760332	     29.82095258	      0.00000000	      0.00000000	    -10.03910963	     10.32269583	     -9.33576937	    -20.36170159	    -44.06512591	     21.03634738	    114.15377121	     87.61692510	      0.00000000	      0.00000000	    -42.51198941	    -37.95316671	      4.84953203	    112.84178961	     87.90882505	      0.00000000	      0.00000000
      4.73000000	    -40.28880516	     -9.56692601	      2.21741283	     -0.38456940	      0.64267409	     -0.88293797	     92.69932472	    -18.37847178	    -10.52130221	     89.17013444	      1.55631244	     32.31671522	      0.00000000	      0.00000000	    102.92047133	    -20.59750230	     10.86687433	     88.74607190	      1.54891115	     29.65319992	      0.00000000	      0.00000000	     -9.71039133	     10.42019221	     -9.63186752	    -20.07650787	    -43.88705624	     21.20287120	    113.97254729	     87.60113941	      0.00000000	      0.00000000	    -42.18844709	    -37.98829066	      5.19137633	    112.56178659	     87.91051645	      0.00000000	      0.00000000
      4.73500000	    -40.03162568	     -9.54727177	      1.72631280	     -0.38224653	      0.64669032	     -0.88152330	     91.97843052	    -17.58890755	    -10.69164608	     88.65282056	      1.54728361	     32.11100877	      0.00000000	      0.00000000	    102.18622524	    -21.26855280	     10.90823450	     88.35188444	      1.54203128	     29.59012519	      0.00000000	      0.00000000	     -9.23936417	     10.30299048	     -9.32440065	    -19.47795216	    -43.80152387	     21.81531425	    113.60684787	     87.58306904	      0.00000000	      0.00000000	    -41.80673225	    -38.31346402	      5.69797260	    112.31671098	     87.89854334	      0.00000000	      0.00000000
      4.74000000	    -39.13663617	     -9.67715692	      1.86024534	     -0.37822920	      0.65177812	     -0.88162784	     90.32923891	    -17.49566549	    -11.14997015	     88.16913774	      1.53884175	     31.93279753	      0.00000000	      0.00000000	    100.70740244	    -21.47142323	     10.83292448	     87.92764485	      1.53462691	     29.48778794	      0.00000000	      0.00000000	     -9.34111774	     10.50039508	     -9.49045740	    -19.12228511	    -43.68798989	     22.05126265	    113.28631557	     87.55088632	      0.00000000	      0.00000000	    -41.46673007	    -38.32674728	      6.04456053	    112.03275604	     87.88696475	      0.00000000	      0.00000000
      4.74500000	    -38.80784510	     -9.62591879	      1.98796668	     -0.37509412	      0.65613769	     -0.88207503	     89.42049762	    -17.44562039	    -11.20842208	     87.59621519	      1.52884237	     31.70968352	      0.00000000	      0.00000000	     99.74624405	    -21.47571604	     10.60881332	     87.44541274	      1.52621037	     29.23468418	      0.00000000	      0.00000000	     -8.79279228	     10.53155971	     -9.79861072	    -19.19926335	    -43.69409573	     22.06971757	    113.22539759	     87.54535638	      0.00000000	      0.00000000	    -41.54503977	    -38.27164477	      6.23775646	    111.99136085	     87.89153083	      0.00000000	      0.00000000
      4.75000000	    -37.85502869	     -9.63461855	      1.94146059	     -0.37107323	      0.66195638	     -0.88161870	     87.73423942	    -17.14634311	    -11.59544775	     87.03577089	      1.51906077	     31.36906807	      0.00000000	      0.00000000	     98.06128604	    -21.94058216	     10.38472472	     86.86947704	      1.51615839	     29.09065808	      0.00000000	      0.00000000	     -8.94323754	     10.53545242	     -9.76179279	    -18.81468362	    -43.47505421	     22.29220437	    112.83983030	     87.52286268	      0.00000000	      0.00000000	    -41.16190047	    -38.26741936	      6.42444015	    111.72392995	     87.87070868	      0.00000000	      0.00000000
      4.75500000	    -37.32051809	     -9.69209478	      1.74767718	     -0.36775778	      0.66726886	     -0.88089348	     86.53413212	    -16.61832622	    -11.79772757	     86.37640600	      1.50755268	     30.99016464	      0.00000000	      0.00000000	     96.89105941	    -22.43319228	     10.24742907	     86.24349469	      1.50523294	     28.80895720	      0.00000000	      0.00000000	     -8.65189107	     10.56191650	     -9.69645229	    -18.74843886	    -43.47341780	     22.35732097	    112.80871923	     87.51632159	      0.00000000	      0.00000000	    -41.24231346	    -38.34662313	      6.43877417	    111.85320649	     87.86734791	      0.00000000	      0.00000000
      4.76000000	    -37.06190803	     -9.61451754	      1.96513577	     -0.36495511	      0.67224212	     -0.88144540	     85.68499288	    -16.71538879	    -11.89828809	     85.74192678	      1.49647893	     30.58690549	      0.00000000	      0.00000000	     95.87121671	    -22.27537331	      9.94768856	     85.55066740	      1.49314082	     28.47771179	      0.00000000	      0.00000000	     -7.96552778	     10.55247175	    -10.11540041	    -18.86761158	    -43.58134612	     22.30024705	    112.88932437	     87.50665628	      0.00000000	      0.00000000	    -41.45024368	    -38.38934498	      6.48018854	    112.04554697	     87.87236996	      0.00000000	      0.00000000
      4.76500000	    -36.51778575	     -9.69296961	      1.63410963	     -0.36159028	      0.67811464	     -0.88031199	     84.43530134	    -16.02894363	    -12.15800664	     84.94929066	      1.48264482	     29.91285242	      0.00000000	      0.00000000	     94.65898361	    -22.94783620	      9.81427982	     84.84564308	      1.48083583	     28.12521207	      0.00000000	      0.00000000	     -7.68213136	     10.54277145	     -9.88781747	    -18.92335543	    -43.57848543	     22.31204017	    112.86701162	     87.49816558	      0.00000000	      0.00000000	    -41.75022464	    -38.34109487	      6.20620572	    112.33180606	     87.87477898	      0.00000000	      0.00000000
      4.77000000	    -35.60177715	     -9.67580639	      1.82746573	     -0.35728861	      0.68480620	     -0.88073704	     82.71251871	    -16.03213344	    -12.51171356	     84.24689343	      1.47038567	     29.21268843	      0.00000000	      0.00000000	     92.90583587	    -23.11251548	      9.43682437	     84.15833902	      1.46884011	     27.75121469	      0.00000000	      0.00000000	     -7.70535761	     10.57832030	    -10.16861732	    -19.05169003	    -43.70187785	     22.20003886	    112.87862317	     87.48831343	      0.00000000	      0.00000000	    -42.08173924	    -38.15737590	      5.91350228	    112.63410992	     87.87640397	      0.00000000	      0.00000000
      4.77500000	    -34.91783016	     -9.69013883	      1.88301911	     -0.35348883	      0.69138467	     -0.88081428	     81.24008038	    -15.81102243	    -12.73545197	     83.43114815	      1.45614823	     28.67447585	      0.00000000	      0.00000000	     91.38133055	    -23.34467792	      9.09231220	     83.38745266	      1.45538560	     27.29537512	      0.00000000	      0.00000000	     -7.48564880	     10.62746772	    -10.34924243	    -19.27127514	    -43.88126765	     22.03347409	    113.13995745	     87.49461174	      0.00000000	      0.00000000	    -42.58556069	    -37.96581338	      5.46817195	    113.12455401	     87.88005446	      0.00000000	      0.00000000
      4.78000000	    -34.77773062	     -9.70959382	      0.96264579	     -0.35060933	      0.69748360	     -0.87823852	     80.48024408	    -14.42244209	    -12.67845244	     82.35994926	      1.43745229	     27.90175519	      0.00000000	      0.00000000	     90.51872582	    -24.59732526	      8.86804981	     82.57164412	      1.44114706	     26.69271309	      0.00000000	      0.00000000	     -6.84765587	     10.42056019	     -9.69762178	    -19.54598785	    -44.07794604	     21.91216655	    113.57035072	     87.50625746	      0.00000000	      0.00000000	    -43.57172598	    -37.87550292	      4.62282419	    113.96322661	     87.88863826	      0.00000000	      0.00000000
      4.78500000	    -33.83529640	     -9.67868160	      1.32523029	     -0.34615030	      0.70498033	     -0.87921170	     78.61834201	    -14.66589756	    -13.13964610	     81.49336246	      1.42232749	     27.04113336	      0.00000000	      0.00000000	     88.59787011	    -24.51635655	      8.39803541	     81.73600078	      1.42656233	     26.05390433	      0.00000000	      0.00000000	     -6.85109399	     10.49229280	    -10.19020156	    -19.91937953	    -44.39350942	     21.53782667	    114.16365738	     87.50929400	      0.00000000	      0.00000000	    -44.26659769	    -37.46250553	      3.82201632	    114.61037325	     87.90729925	      0.00000000	      0.00000000
      4.79000000	    -33.00276303	     -9.61303157	      1.44063128	     -0.34183941	      0.71253943	     -0.87951445	     76.87861237	    -14.54998382	    -13.39174115	     80.49920820	      1.40497623	     26.34315947	      0.00000000	      0.00000000	     86.76436262	    -24.69475586	      7.89081943	     80.82534917	      1.41066846	     25.36841060	      0.00000000	      0.00000000	     -6.73514931	     10.37468843	    -11.68886324	    -17.64684331	    -45.46630261	     23.90865307	    114.43821135	     87.50499000	      0.00000000	      0.00000000	    -46.83298692	    -35.64813797	      1.21667708	    115.64880983	     87.95633108	      0.00000000	      0.00000000
      4.79500000	    -31.78034924	     -9.70497475	      0.82092798	     -0.33650802	      0.72187616	     -0.87787511	     74.53505446	    -13.42185501	    -13.72343135	     79.13377946	      1.38114500	     25.52197402	      0.00000000	      0.00000000	     84.43625329	    -25.97158399	      7.33225477	     79.81334021	      1.39300557	     24.58055252	      0.00000000	      0.00000000	     -7.19455302	     10.36480663	    -11.07667643	    -17.90217543	    -45.65350090	     23.47740850	    115.09217757	     87.48472182	      0.00000000	      0.00000000	    -47.49170854	    -35.36298169	      0.47352068	    116.28001641	     87.94484415	      0.00000000	      0.00000000
      4.80000000	    -31.74061471	     -9.48520465	      1.20197843	     -0.33372170	      0.72828475	     -0.87908283	     73.75647281	    -13.83384798	    -13.83869899	     78.10671942	      1.36321942	     24.57749773	      0.00000000	      0.00000000	     83.38908040	    -25.41733467	      6.87644736	     78.75433213	      1.37452240	     23.80519349	      0.00000000	      0.00000000	     -6.22427532	     10.22931875	    -11.71274683	    -18.83551953	    -46.22889073	     22.49512490	    116.45109641	     87.49911922	      0.00000000	      0.00000000	    -48.79334642	    -34.79532025	     -0.72293350	    117.47719254	     87.97260876	      0.00000000	      0.00000000
